HIERARCHY
ROOT Hips
{
	OFFSET 0.00000 0.00000 0.00000
	CHANNELS 6 Xposition Yposition Zposition Zrotation Yrotation Xrotation 
	JOINT LHipJoint
	{
		OFFSET 0 0 0
		CHANNELS 3 Zrotation Yrotation Xrotation
		JOINT LeftHip
		{
			OFFSET 1.77779 -1.88989 0.48267
			CHANNELS 3 Zrotation Yrotation Xrotation
			JOINT LeftKnee
			{
				OFFSET 2.53442 -6.96327 0.00000
				CHANNELS 3 Zrotation Yrotation Xrotation
				JOINT LeftAnkle
				{
					OFFSET 2.71068 -7.44755 0.00000
					CHANNELS 3 Zrotation Yrotation Xrotation
					JOINT LeftToe
					{
						OFFSET 0.17992 -0.49431 2.22524
						CHANNELS 3 Zrotation Yrotation Xrotation
						End Site
						{
							OFFSET 0.00000 -0.00000 1.14687
						}
					}
				}
			}
		}
	}
	JOINT RHipJoint
	{
		OFFSET 0 0 0
		CHANNELS 3 Zrotation Yrotation Xrotation
		JOINT RightHip
		{
			OFFSET -1.58469 -1.88989 0.48267
			CHANNELS 3 Zrotation Yrotation Xrotation
			JOINT RightKnee
			{
				OFFSET -2.60386 -7.15404 0.00000
				CHANNELS 3 Zrotation Yrotation Xrotation
				JOINT RightAnkle
				{
					OFFSET -2.73334 -7.50979 0.00000
					CHANNELS 3 Zrotation Yrotation Xrotation
					JOINT RightToe
					{
						OFFSET -0.25618 -0.70384 2.21822
						CHANNELS 3 Zrotation Yrotation Xrotation
						End Site
						{
							OFFSET -0.00000 -0.00000 1.16381
						}
					}
				}
			}
		}
	}
	JOINT lowerback
	{
		OFFSET 0 0 0
		CHANNELS 3 Zrotation Yrotation Xrotation
		JOINT Chest
		{
			OFFSET 0.03410 2.01612 -0.22230
			CHANNELS 3 Zrotation Yrotation Xrotation
			JOINT Chest2
			{
				OFFSET 0.03465 2.03012 0.00937
				CHANNELS 3 Zrotation Yrotation Xrotation
				JOINT lowerneck
				{
					OFFSET 0 0 0
					CHANNELS 3 Zrotation Yrotation Xrotation
					JOINT Neck
					{
						OFFSET -0.00219 1.70459 0.20857
						CHANNELS 3 Zrotation Yrotation Xrotation
						JOINT Head
						{
							OFFSET 0.02518 1.72339 -0.22179
							CHANNELS 3 Zrotation Yrotation Xrotation
							End Site
							{
								OFFSET 0.00282 1.74122 -0.09823
							}
						}
					}
				}
				JOINT LeftCollar
				{
					OFFSET 0 0 0
					CHANNELS 3 Zrotation Yrotation Xrotation
					JOINT LeftShoulder
					{
						OFFSET 3.36358 1.00547 -0.37661
CHANNELS 3 Zrotation Xrotation Yrotation
						JOINT LeftElbow
						{
OFFSET 0 -5.065070 0.000000
CHANNELS 3 Zrotation Xrotation Yrotation
							JOINT LeftWrist
							{
OFFSET 0 -3.601960 0.000000
CHANNELS 3 Zrotation Xrotation Yrotation
								JOINT lhand
								{
									OFFSET 0 0 0
CHANNELS 3 Zrotation Xrotation Yrotation
									JOINT LFingers
									{
OFFSET 0 -0.450350 0.000000
CHANNELS 3 Zrotation Xrotation Yrotation
										End Site
										{
OFFSET 0 -0.363080 0.000000
										}
									}
								}
								JOINT LThumb
								{
OFFSET 0 0.000000 0.000000
CHANNELS 3 Zrotation Xrotation Yrotation
									End Site
									{
OFFSET 0 -0.368620 0.368620
									}
								}
							}
						}
					}
				}
				JOINT RightCollar
				{
					OFFSET 0 0 0
					CHANNELS 3 Zrotation Yrotation Xrotation
					JOINT RightShoulder
					{
						OFFSET -3.50159 0.80383 -0.71526
CHANNELS 3 Zrotation Xrotation Yrotation
						JOINT RightElbow
						{
OFFSET 0 -5.363940 0.000000
CHANNELS 3 Zrotation Xrotation Yrotation
							JOINT RightWrist
							{
OFFSET 0 -3.580350 0.000000
CHANNELS 3 Zrotation Xrotation Yrotation
								JOINT rhand
								{
									OFFSET 0 0 0
CHANNELS 3 Zrotation Xrotation Yrotation
									JOINT RFingers
									{
OFFSET 0 -0.663750 0.000000
CHANNELS 3 Zrotation Xrotation Yrotation
										End Site
										{
OFFSET 0 -0.535130 0.000000
										}
									}
								}
								JOINT RThumb
								{
OFFSET 0 0.000000 0.000000
CHANNELS 3 Zrotation Xrotation Yrotation
									End Site
									{
OFFSET 0 -0.543300 0.543300
									}
								}
							}
						}
					}
				}
			}
		}
	}
}
MOTION
Frames: 7
Frame Time: 0.008333333333333333
-0.498610 18.567970 7.585392 0.978002 -2.122226 5.541133 0.000000 0.000000 0.000000 -26.132887 2.723287 16.288481 1.844650 8.534159 24.349022 2.215198 -5.659821 30.578874 0.662397 -5.193062 -14.462640 0.000000 0.000000 0.000000 18.035879 16.923380 -39.297534 -6.162083 -14.570716 45.604308 -0.015959 -1.765204 -3.691679 -1.217450 6.997383 -19.708370 -2.365846 -1.115494 14.156625 0.995020 -1.812598 -2.264900 2.830928 -0.688147 -10.328291 -1.987581 -3.038997 -21.866686 2.657295 -3.931822 10.821681 0.716290 -1.721834 6.937327 0.000000 0.000000 0.000000 6.881492 2.983155 -49.272492 146.319772 -43.845749 106.108722 30.199957 -30.769834 2.909268 0.000000 0.000000 0.000000 -7.125000 0.000000 0.000000 2.743193 26.612979 1.224247 0.000000 0.000000 0.000000 -5.681338 34.328968 46.643626 -129.743436 -53.098322 -93.620790 -18.949702 -25.123123 -33.496560 0.000000 0.000000 0.000000 7.125000 0.000000 0.000000 7.413658 -4.740967 8.066545
-0.497031 18.581909 7.738977 1.142007 -2.142678 5.584199 0.000000 0.000000 0.000000 -26.364262 2.613461 16.458444 1.872751 8.594878 24.536666 2.259594 -5.497064 30.766823 0.596191 -4.916987 -13.677119 0.000000 0.000000 0.000000 17.859237 16.952340 -39.012203 -5.822850 -14.227548 44.214924 -0.010278 -2.015811 -3.635838 -1.179151 6.888748 -19.387511 -2.459737 -1.141683 14.071076 0.966060 -1.864393 -2.207701 2.859583 -0.711842 -10.209874 -1.998943 -3.022591 -22.177458 2.647484 -3.900867 10.892044 0.715071 -1.704901 7.009380 0.000000 0.000000 0.000000 6.883875 2.981464 -49.333876 146.149116 -43.972646 105.990167 30.303270 -30.629302 2.706604 0.000000 0.000000 0.000000 -7.125000 0.000000 0.000000 2.832179 26.843938 1.247942 0.000000 0.000000 0.000000 -5.594015 34.230504 46.419679 -129.843507 -53.058166 -93.700769 -19.026107 -25.238769 -33.495479 0.000000 0.000000 0.000000 7.125000 0.000000 0.000000 7.371174 -4.755100 8.021234
-0.495451 18.595849 7.892562 1.306012 -2.163130 5.627264 0.000000 0.000000 0.000000 -26.595637 2.503635 16.628407 1.900852 8.655597 24.724309 2.303990 -5.334306 30.954771 0.529985 -4.640911 -12.891598 0.000000 0.000000 0.000000 17.682596 16.981300 -38.726871 -5.483617 -13.884379 42.825540 -0.004597 -2.266418 -3.579996 -1.140852 6.780114 -19.066651 -2.553628 -1.167872 13.985526 0.937100 -1.916188 -2.150502 2.888238 -0.735536 -10.091457 -2.010306 -3.006185 -22.488230 2.637674 -3.869912 10.962407 0.713852 -1.687969 7.081434 0.000000 0.000000 0.000000 6.886258 2.979774 -49.395260 145.978461 -44.099543 105.871611 30.406584 -30.488770 2.503940 0.000000 0.000000 0.000000 -7.125000 0.000000 0.000000 2.921165 27.074897 1.271636 0.000000 0.000000 0.000000 -5.506692 34.132041 46.195731 -129.943578 -53.018010 -93.780748 -19.102511 -25.354414 -33.494398 0.000000 0.000000 0.000000 7.125000 0.000000 0.000000 7.328690 -4.769234 7.975924
-0.493871 18.609788 8.046146 1.470016 -2.183582 5.670330 0.000000 0.000000 0.000000 -26.827011 2.393809 16.798370 1.928953 8.716316 24.911953 2.348386 -5.171548 31.142720 0.463779 -4.364836 -12.106077 0.000000 0.000000 0.000000 17.505954 17.010260 -38.441540 -5.144384 -13.541211 41.436156 0.001084 -2.517026 -3.524155 -1.102553 6.671480 -18.745792 -2.647519 -1.194060 13.899976 0.908140 -1.967984 -2.093302 2.916893 -0.759231 -9.973040 -2.021668 -2.989779 -22.799002 2.627864 -3.838957 11.032770 0.712632 -1.671036 7.153487 0.000000 0.000000 0.000000 6.888642 2.978083 -49.456644 145.807805 -44.226440 105.753055 30.509897 -30.348238 2.301276 0.000000 0.000000 0.000000 -7.125000 0.000000 0.000000 3.010151 27.305856 1.295331 0.000000 0.000000 0.000000 -5.419369 34.033577 45.971783 -130.043649 -52.977854 -93.860728 -19.178915 -25.470060 -33.493317 0.000000 0.000000 0.000000 7.125000 0.000000 0.000000 7.286207 -4.783367 7.930613
-0.493453 18.618021 8.197062 1.765343 -2.161018 5.707071 0.000000 0.000000 0.000000 -27.176193 2.261943 16.938783 1.983961 8.829984 25.266647 2.330839 -5.472952 31.193046 0.498282 -4.514131 -12.529783 0.000000 0.000000 0.000000 17.201103 16.964058 -38.196334 -4.850317 -13.193694 40.131644 0.010768 -2.882401 -3.473725 -1.129507 6.748204 -18.972261 -2.886915 -1.219952 13.879013 0.846368 -2.049898 -2.093450 3.002549 -0.787373 -9.949576 -2.011114 -2.975572 -22.919943 2.589565 -3.814870 11.053718 0.699998 -1.661541 7.178003 0.000000 0.000000 0.000000 6.884033 3.064452 -49.533124 145.589463 -44.384963 105.600032 30.494144 -30.525598 2.302525 0.000000 0.000000 0.000000 -7.125000 0.000000 0.000000 2.998008 27.304809 1.290315 0.000000 0.000000 0.000000 -5.310970 34.026186 45.728959 -130.136357 -52.940194 -93.934678 -19.141367 -25.514275 -33.586645 0.000000 0.000000 0.000000 7.125000 0.000000 0.000000 7.319947 -4.869475 7.978130
-0.493176 18.625558 8.347654 2.076642 -2.133222 5.743042 0.000000 0.000000 0.000000 -27.539702 2.127397 17.075601 2.042241 8.950091 25.641657 2.305759 -5.830809 31.226634 0.545034 -4.715160 -13.100557 0.000000 0.000000 0.000000 16.880659 16.908716 -37.956008 -4.561743 -12.845648 38.837453 0.020938 -3.261735 -3.423952 -1.164398 6.847471 -19.265296 -3.144007 -1.245809 13.865905 0.780606 -2.135475 -2.100572 3.095138 -0.816055 -9.937659 -1.997895 -2.961632 -23.017797 2.547802 -3.791619 11.068655 0.685975 -1.652950 7.196736 0.000000 0.000000 0.000000 6.878573 3.161530 -49.611441 145.365321 -44.547333 105.442817 30.463909 -30.741619 2.328575 0.000000 0.000000 0.000000 -7.125000 0.000000 0.000000 2.973565 27.275544 1.281807 0.000000 0.000000 0.000000 -5.200008 34.029872 45.483839 -130.228170 -52.902837 -94.007895 -19.089960 -25.549803 -33.691455 0.000000 0.000000 0.000000 7.125000 0.000000 0.000000 7.362957 -4.964336 8.036937
-0.492899 18.633096 8.498246 2.387940 -2.105426 5.779013 0.000000 0.000000 0.000000 -27.903212 1.992852 17.212419 2.100521 9.070199 26.016667 2.280679 -6.188665 31.260222 0.591785 -4.916189 -13.671331 0.000000 0.000000 0.000000 16.560216 16.853373 -37.715682 -4.273169 -12.497603 37.543263 0.031109 -3.641068 -3.374180 -1.199288 6.946738 -19.558332 -3.401099 -1.271665 13.852797 0.714843 -2.221052 -2.107694 3.187726 -0.844738 -9.925743 -1.984676 -2.947693 -23.115652 2.506039 -3.768368 11.083592 0.671952 -1.644359 7.215470 0.000000 0.000000 0.000000 6.873114 3.258608 -49.689757 145.141180 -44.709703 105.285602 30.433674 -30.957641 2.354626 0.000000 0.000000 0.000000 -7.125000 0.000000 0.000000 2.949122 27.246279 1.273299 0.000000 0.000000 0.000000 -5.089045 34.033558 45.238719 -130.319982 -52.865480 -94.081113 -19.038552 -25.585331 -33.796265 0.000000 0.000000 0.000000 7.125000 0.000000 0.000000 7.405967 -5.059197 8.095743
